<svg xmlns="http://www.w3.org/2000/svg" width="23" height="22" viewBox="0 0 23 22" fill="none">
<path d="M22.0041 13.661C20.5347 19.5539 14.5655 23.1402 8.67133 21.6707C2.77952 20.2015 -0.807212 14.2327 0.662818 8.34018C2.13147 2.44665 8.10065 -1.14 13.9931 0.32917C19.887 1.79834 23.4734 7.76785 22.0041 13.661Z" fill="white"/>
<path d="M15.6174 8.33575C15.4833 6.88397 14.2324 6.39274 12.6513 6.2482L12.6588 4.23519L11.4335 4.2307L11.4262 6.19065C11.1041 6.18947 10.7748 6.1946 10.4477 6.19989L10.4553 4.22696L9.23065 4.2223L9.2226 6.23473C8.9573 6.23915 8.69676 6.2431 8.44273 6.24231L8.44259 6.23607L6.75261 6.22911L6.748 7.53777C6.748 7.53777 7.6529 7.52393 7.63779 7.54054C8.13411 7.54256 8.29455 7.8313 8.34059 8.08012L8.33205 10.3734C8.3663 10.3737 8.41098 10.3753 8.46154 10.3824C8.42072 10.3823 8.37703 10.3818 8.3321 10.3821L8.31967 13.5947C8.2973 13.7508 8.20455 13.9995 7.85779 13.9988C7.87342 14.0127 6.96709 13.9952 6.96709 13.9952L6.71811 15.4576L8.31267 15.4635C8.6094 15.465 8.90135 15.4711 9.18797 15.474L9.18082 17.51L10.4048 17.5148L10.4124 15.5004C10.7484 15.5086 11.0736 15.5125 11.3911 15.5134L11.3831 17.5185L12.6084 17.523L12.6164 15.4907C14.6768 15.3803 16.1206 14.8667 16.3069 12.933C16.4573 11.3758 15.7272 10.678 14.5589 10.3928C15.2707 10.0338 15.7173 9.39806 15.6174 8.33575ZM13.8867 12.6826C13.8816 14.204 11.2771 14.0211 10.4467 14.0188L10.4572 11.3213C11.2879 11.3246 13.8928 11.0956 13.8867 12.6826ZM13.3312 8.87463C13.3256 10.2589 11.1535 10.0891 10.4618 10.0866L10.4711 7.64009C11.1628 7.64264 13.3365 7.43087 13.3312 8.87463Z" fill="#000515"/>
</svg>