<svg width="21" height="22" viewBox="0 0 21 22" fill="none" xmlns="http://www.w3.org/2000/svg">
    <path
        d="M18.75 19.0938C18.75 19.1764 18.6764 19.25 18.5938 19.25H2.40625C2.32364 19.25 2.25 19.1764 2.25 19.0938C2.25 19.0111 2.32364 18.9375 2.40625 18.9375H18.5938C18.6764 18.9375 18.75 19.0111 18.75 19.0938Z"
        fill="#292D32" stroke="white" />
    <path
        d="M3.1404 13.5034L2.99324 13.3525H2.9925C2.10758 12.3164 2.15445 10.7602 3.12731 9.78734L9.38356 3.53109C10.4133 2.50135 12.0742 2.50135 13.104 3.53109L13.1038 3.5312L13.1129 3.53982C13.2626 3.68226 13.2693 3.94492 13.1127 4.10149L3.71521 13.499C3.54927 13.6649 3.2918 13.6586 3.1404 13.5034Z"
        fill="white" stroke="white" />
    <path
        d="M17.864 8.28233L17.8652 8.28359C18.9018 9.31282 18.9018 10.9796 17.8577 12.009L17.855 12.0117L11.609 18.2665C11.6087 18.2667 11.6085 18.2669 11.6083 18.2672C10.5785 19.2888 8.91677 19.2889 7.88691 18.2673C7.88662 18.267 7.88633 18.2667 7.88604 18.2665L5.21914 15.5908L5.21856 15.5902C5.05263 15.4243 5.05899 15.1668 5.21417 15.0154L5.2142 15.0154L5.21856 15.0111L14.6161 5.61358L14.6161 5.61361L14.6204 5.60919C14.7718 5.45401 15.0293 5.44765 15.1952 5.61358L17.864 8.28233ZM10.4598 17.2511L10.4613 17.2496L11.5164 16.1858C11.8101 15.8999 11.8938 15.4771 11.7805 15.1088C12.1443 15.2203 12.5574 15.1417 12.85 14.8607L12.8501 14.8608L12.858 14.8529L14.9923 12.7098C14.9924 12.7097 14.9925 12.7096 14.9926 12.7096C15.4101 12.2918 15.4002 11.6218 14.9992 11.2047L14.9922 11.1975L14.985 11.1906C14.5768 10.7987 13.8981 10.7886 13.489 11.1977L11.3452 13.3415L11.3451 13.3414L11.3383 13.3485C11.0598 13.6382 10.97 14.0499 11.081 14.4144C10.7167 14.3048 10.3004 14.3862 10.0152 14.6715L8.94771 15.739L8.94764 15.7389L8.94084 15.746C8.53972 16.1631 8.52996 16.8333 8.94771 17.2511L8.94764 17.2512L8.95471 17.2579C9.37187 17.6591 10.0421 17.6688 10.4598 17.2511Z"
        fill="white" stroke="white" />
</svg>