<svg width="21" height="22" viewBox="0 0 21 22" fill="none" xmlns="http://www.w3.org/2000/svg">
    <path
        d="M18.375 19.9062H2.625C2.54239 19.9062 2.46875 19.8326 2.46875 19.75C2.46875 19.6674 2.54239 19.5938 2.625 19.5938H18.375C18.4576 19.5938 18.5312 19.6674 18.5312 19.75C18.5312 19.8326 18.4576 19.9062 18.375 19.9062Z"
        fill="white" stroke="white" />
    <path
        d="M3.5 8.33252H4.9C5.10838 8.33252 5.275 8.49692 5.275 8.70752V16.25C5.275 16.4551 5.10511 16.625 4.9 16.625H3.5C3.29489 16.625 3.125 16.4551 3.125 16.25V8.70752C3.125 8.50241 3.29489 8.33252 3.5 8.33252Z"
        fill="white" stroke="white" />
    <path
        d="M11.2 5.04126H9.80005C9.3188 5.04126 8.92505 5.43501 8.92505 5.91626V16.25C8.92505 16.7313 9.3188 17.125 9.80005 17.125H11.2C11.6813 17.125 12.075 16.7313 12.075 16.25V5.91626C12.075 5.43501 11.6813 5.04126 11.2 5.04126Z"
        fill="white" />
    <path
        d="M17.5 2.25H16.1C15.6187 2.25 15.225 2.64375 15.225 3.125V16.25C15.225 16.7312 15.6187 17.125 16.1 17.125H17.5C17.9812 17.125 18.375 16.7312 18.375 16.25V3.125C18.375 2.64375 17.9812 2.25 17.5 2.25Z"
        fill="white" />
</svg>