<svg width="21" height="22" viewBox="0 0 21 22" fill="none" xmlns="http://www.w3.org/2000/svg">
    <path
        d="M17.535 6.46748L12.495 2.94123C11.1212 1.97873 9.01246 2.03123 7.69121 3.05498L3.30746 6.47623C2.43246 7.15873 1.74121 8.55873 1.74121 9.66123V15.6987C1.74121 17.93 3.55246 19.75 5.78371 19.75H15.2162C17.4475 19.75 19.2587 17.9387 19.2587 15.7075V9.77498C19.2587 8.59373 18.4975 7.14123 17.535 6.46748ZM11.1562 16.25C11.1562 16.6087 10.8587 16.9062 10.5 16.9062C10.1412 16.9062 9.84371 16.6087 9.84371 16.25V13.625C9.84371 13.2662 10.1412 12.9687 10.5 12.9687C10.8587 12.9687 11.1562 13.2662 11.1562 13.625V16.25Z"
        fill="white" />
</svg>