<svg width="21" height="22" viewBox="0 0 21 22" fill="none" xmlns="http://www.w3.org/2000/svg">
    <path
        d="M2.84807 19.1765L2.85037 19.1747L4.34625 18.055L2.84807 19.1765ZM2.84807 19.1765C2.60276 19.3623 2.25 19.1917 2.25 18.875V6.625V5.75C2.25 4.84837 2.4552 4.10983 2.89405 3.60164C3.32107 3.10715 4.03986 2.75 5.25 2.75H6.125H13.8811M2.84807 19.1765L13.8811 2.75M8.49625 20.0037L8.1427 19.6502C7.99684 19.7961 7.75374 19.7962 7.60771 19.6506C7.60757 19.6505 7.60744 19.6503 7.6073 19.6502L6.15586 18.19L6.1548 18.1889C5.66608 17.7002 4.89804 17.6414 4.34662 18.0547L8.49625 20.0037ZM8.49625 20.0037L8.1427 19.6502L9.6127 18.1802C10.0926 17.7003 10.8621 17.6406 11.4057 18.0564L12.898 19.1735C12.8982 19.1737 12.8984 19.1738 12.8986 19.174C13.1491 19.3592 13.5 19.1778 13.5 18.875V4C13.5 3.5382 13.6406 3.10798 13.8811 2.75M8.49625 20.0037L13.8811 2.75M5.90625 13.0312H9.84375C10.4786 13.0312 11 12.5099 11 11.875C11 11.2401 10.4786 10.7188 9.84375 10.7188H5.90625C5.27136 10.7188 4.75 11.2401 4.75 11.875C4.75 12.5099 5.27136 13.0312 5.90625 13.0312ZM5.25 9.53125H10.5C11.1349 9.53125 11.6562 9.00989 11.6562 8.375C11.6562 7.74011 11.1349 7.21875 10.5 7.21875H5.25C4.61511 7.21875 4.09375 7.74011 4.09375 8.375C4.09375 9.00989 4.61511 9.53125 5.25 9.53125Z"
        fill="white" stroke="white" />
    <path
        d="M17.6472 3.84261L17.6473 3.84253L17.6396 3.83508C17.2643 3.46791 16.7825 3.21153 16.2588 3.11043V2.79552C16.882 2.90378 17.4378 3.19937 17.8727 3.62731C18.4146 4.17794 18.75 4.92789 18.75 5.75V7.8675C18.75 8.45171 18.5673 8.87999 18.2861 9.16113C18.005 9.44228 17.5767 9.625 16.9925 9.625H14.5V4.00875C14.5 3.4913 14.8123 3.04671 15.2588 2.85324V3.20599C14.9911 3.37347 14.8125 3.67093 14.8125 4.00875V8.8125V9.3125H15.3125H16.9925C17.3853 9.3125 17.7786 9.2245 18.0659 8.93511C18.3525 8.64643 18.4375 8.25409 18.4375 7.8675V5.75C18.4375 5.03755 18.1558 4.36182 17.6472 3.84261Z"
        fill="white" stroke="white" />
</svg>