<svg xmlns="http://www.w3.org/2000/svg" width="22" height="22" viewBox="0 0 22 22" fill="none">
<circle cx="11" cy="11" r="11" fill="white"/>
<path d="M10.2793 15.4132C9.25849 15.2988 8.37849 15.0348 7.63929 14.6212V12.7204C8.14089 13.046 8.67769 13.288 9.24969 13.4464C9.83049 13.6048 10.3981 13.684 10.9525 13.684C11.4893 13.684 11.8853 13.618 12.1405 13.486C12.4045 13.3452 12.5365 13.1164 12.5365 12.7996C12.5365 12.562 12.4529 12.364 12.2857 12.2056C12.1273 12.0472 11.9205 11.9196 11.6653 11.8228C11.4189 11.726 11.0757 11.6116 10.6357 11.4796C10.0109 11.286 9.50049 11.1012 9.10449 10.9252C8.70849 10.7404 8.36969 10.472 8.08809 10.12C7.80649 9.75919 7.66569 9.29719 7.66569 8.73399C7.66569 7.99479 7.90329 7.40519 8.37849 6.96519C8.85369 6.52519 9.48729 6.25239 10.2793 6.14679V4.61559H11.7577V6.14679C12.2065 6.19079 12.6377 6.26999 13.0513 6.38439C13.4649 6.49879 13.8257 6.63959 14.1337 6.80679V8.68119C13.7465 8.41719 13.2977 8.21479 12.7873 8.07399C12.2769 7.93319 11.7621 7.86279 11.2429 7.86279C10.2925 7.86279 9.81729 8.14439 9.81729 8.70759C9.81729 9.01559 9.96249 9.25319 10.2529 9.42039C10.5521 9.57879 11.0229 9.75039 11.6653 9.93519C12.2989 10.12 12.8181 10.3048 13.2229 10.4896C13.6365 10.6744 13.9885 10.9472 14.2789 11.308C14.5693 11.6688 14.7145 12.1396 14.7145 12.7204C14.7145 13.5828 14.4417 14.234 13.8961 14.674C13.3593 15.1052 12.6465 15.3516 11.7577 15.4132V16.9444H10.2793V15.4132Z" fill="#131313"/>
</svg>