<svg width="21" height="22" viewBox="0 0 21 22" fill="none" xmlns="http://www.w3.org/2000/svg">
    <path
        d="M6.84375 6.40625C6.84375 4.38989 8.48364 2.75 10.5 2.75C12.516 2.75 14.1557 4.38937 14.1562 6.40528C14.148 8.38359 12.6055 9.9802 10.6397 10.0538H10.6397H10.6396H10.6396H10.6396H10.6396H10.6395H10.6395H10.6395H10.6395H10.6394H10.6394H10.6394H10.6394H10.6393H10.6393H10.6393H10.6393H10.6392H10.6392H10.6392H10.6391H10.6391H10.6391H10.6391H10.639H10.639H10.639H10.639H10.6389H10.6389H10.6389H10.6389H10.6388H10.6388H10.6388H10.6388H10.6387H10.6387H10.6387H10.6386H10.6386H10.6386H10.6386H10.6385H10.6385H10.6385H10.6385H10.6384H10.6384H10.6384H10.6384H10.6383H10.6383H10.6383H10.6382H10.6382H10.6382H10.6382H10.6381H10.6381H10.6381H10.6381H10.638H10.638H10.638H10.6379H10.6379H10.6379H10.6379H10.6378H10.6378H10.6378H10.6377H10.6377H10.6377H10.6377H10.6376H10.6376H10.6376H10.6375H10.6375H10.6375H10.6375H10.6374H10.6374H10.6374H10.6373H10.6373H10.6373H10.6372H10.6372H10.6372H10.6372H10.6371H10.6371H10.6371H10.637H10.637H10.637H10.6369H10.6369H10.6369H10.6369H10.6368H10.6368H10.6368H10.6367H10.6367H10.6367H10.6366H10.6366H10.6366H10.6365H10.6365H10.6365H10.6364H10.6364H10.6364H10.6363H10.6363H10.6363H10.6363H10.6362H10.6362H10.6362H10.6361H10.6361H10.6361H10.636H10.636H10.636H10.6359H10.6359H10.6359H10.6358H10.6358H10.6357H10.6357H10.6357H10.6356H10.6356H10.6356H10.6355H10.6355H10.6355H10.6354H10.6354H10.6354H10.6353H10.6353H10.6353H10.6352H10.6352H10.6351H10.6351H10.6351H10.635H10.635H10.635H10.6349H10.6349H10.6349H10.6348H10.6348H10.6347H10.6347H10.6347H10.6346H10.6346H10.6345H10.6345H10.6345H10.6344H10.6344H10.6344H10.6343H10.6343H10.6342H10.6342H10.6342H10.6341H10.6341H10.634H10.634H10.634H10.6339H10.6339H10.6338H10.6338H10.6337H10.6337H10.6337H10.6336H10.6336H10.6335H10.6335H10.6335H10.6334H10.6334H10.6333H10.6333H10.6332H10.6332H10.6331H10.6331H10.6331H10.633H10.633H10.6329H10.6329H10.6328H10.6328H10.6327H10.6327H10.6327H10.6326H10.6326H10.6325H10.6325H10.6324H10.6324H10.6323H10.6323H10.6322H10.6322H10.6321H10.6321H10.632H10.632H10.6319H10.6319H10.6319H10.6318H10.6318H10.6317H10.6317H10.6316H10.6316H10.6315H10.6315H10.6314H10.6314H10.6313H10.6312H10.6311H10.631H10.6309H10.6308H10.6307H10.6306H10.6305H10.6304H10.6303H10.6302H10.6301H10.63H10.6299H10.6298H10.6297H10.6296H10.6295H10.6294H10.6293H10.6292H10.6291H10.629H10.6289H10.6288H10.6287H10.6286H10.6286H10.6285H10.6284H10.6283H10.6282H10.6281H10.628H10.6279H10.6278H10.6277H10.6276H10.6275H10.6274H10.6273H10.6272H10.6271H10.627H10.6269H10.6268H10.6267H10.6266H10.6265H10.6265H10.6264H10.6263H10.6262H10.6261H10.626H10.6259H10.6258H10.6257H10.6256H10.6255H10.6254H10.6253H10.6252H10.6252H10.6251H10.625H10.6249H10.6248H10.6247H10.6246H10.6245H10.6244H10.6243H10.6242H10.6242H10.6241H10.624H10.6239H10.6238H10.6237H10.6236H10.6235H10.6234H10.6234H10.6233H10.6232H10.6231H10.623H10.6229H10.6228H10.6227H10.6226H10.6226H10.6225H10.6224H10.6223H10.6222H10.6221H10.622H10.622H10.6219H10.6218H10.6217H10.6216H10.6215H10.6214H10.6214H10.6213H10.6212H10.6211H10.621H10.6209H10.6208H10.6208H10.6207H10.6206H10.6206C10.5389 10.0446 10.455 10.0457 10.3781 10.0527C8.36822 9.96646 6.84375 8.37096 6.84375 6.40625Z"
        fill="white" stroke="white" />
    <path
        d="M6.33368 18.1012L6.33232 18.1002C5.33086 17.4326 4.83997 16.5755 4.83997 15.7075C4.83997 14.8392 5.33123 13.9735 6.34077 13.2975C7.4717 12.5493 8.9799 12.1606 10.5109 12.1606C12.0425 12.1606 13.5461 12.5496 14.6676 13.2973C15.6655 13.9625 16.1521 14.8193 16.16 15.6921C16.1592 16.5685 15.6678 17.4253 14.6658 18.1014C13.54 18.8572 12.0327 19.25 10.5 19.25C8.96702 19.25 7.45957 18.8571 6.33368 18.1012Z"
        fill="white" stroke="white" />
</svg>