<svg width="26" height="19" viewBox="0 0 26 19" fill="none" xmlns="http://www.w3.org/2000/svg">
    <path
        d="M24.8454 3.38564C24.701 2.84767 24.4177 2.35706 24.0241 1.96293C23.6305 1.5688 23.1402 1.28497 22.6024 1.13984C20.6229 0.607422 12.6875 0.607422 12.6875 0.607422C12.6875 0.607422 4.75215 0.607422 2.77256 1.13701C2.23453 1.28167 1.74403 1.56534 1.35033 1.95955C0.956623 2.35375 0.673568 2.8446 0.52959 3.38281C-1.08033e-07 5.36523 0 9.5 0 9.5C0 9.5 -1.08033e-07 13.6348 0.52959 15.6144C0.821289 16.7075 1.68223 17.5685 2.77256 17.8602C4.75215 18.3926 12.6875 18.3926 12.6875 18.3926C12.6875 18.3926 20.6229 18.3926 22.6024 17.8602C23.6956 17.5685 24.5537 16.7075 24.8454 15.6144C25.375 13.6348 25.375 9.5 25.375 9.5C25.375 9.5 25.375 5.36523 24.8454 3.38564ZM10.167 13.2949V5.70508L16.7373 9.47168L10.167 13.2949Z"
        fill="#FCA93D" />
</svg>